<svg width="17" height="17" viewBox="0 0 17 17" fill="none" xmlns="http://www.w3.org/2000/svg">
<g clip-path="url(#clip0_1_179)">
<path d="M12.7009 8.06057C12.6292 9.10266 12.035 9.83425 11.3489 10.1443C10.6215 10.473 9.88615 10.2917 9.51904 9.69307C8.91799 8.71288 9.331 8.03069 9.73038 7.37094C10.1832 6.62285 10.6966 5.77491 10.2042 4.12597C9.81556 2.82419 9.05437 1.73129 7.94177 0.877598C7.59493 0.611504 7.26599 0.411379 6.99904 0.268066C7.37189 1.17563 7.85675 2.86447 7.35028 4.73035C7.02906 5.91388 6.18012 6.81075 5.35911 7.6781C4.27777 8.82054 3.15956 10.0018 3.15956 11.8893C3.15956 13.3535 3.66971 14.52 4.67579 15.3563C5.43766 15.9895 6.21509 16.2361 6.22284 16.238H8.07792L8.03909 16.2373C8.03193 16.2317 7.32519 15.6739 7.31302 15.0341C7.30735 14.7351 7.46428 14.4482 7.77944 14.1815C8.25284 13.7809 8.51302 13.3496 8.57492 12.863C8.61277 12.5653 8.5745 12.2507 8.45819 11.9111C9.24336 12.2403 10.0556 12.9593 10.3308 13.8519C10.578 14.6534 10.3493 15.4777 9.67018 16.238H11.7004C13.0302 15.1962 13.7789 13.9477 13.9256 12.5271C14.1127 10.7159 13.2847 9.01007 12.7009 8.06057Z" fill="black"/>
<path d="M8.07793 16.238L9.64345 16.2681C9.65253 16.2581 9.66123 16.248 9.67017 16.238H8.07793Z" fill="black"/>
</g>
<defs>
<clipPath id="clip0_1_179">
<rect width="15.2" height="16" fill="white" transform="translate(0.956055 0.268066)"/>
</clipPath>
</defs>
</svg>
