<svg width="16" height="17" viewBox="0 0 16 17" fill="none" xmlns="http://www.w3.org/2000/svg">
<g clip-path="url(#clip0_1_231)">
<path d="M12.511 7.97701C12.4393 9.0191 11.8451 9.7507 11.159 10.0608C10.4315 10.3894 9.69621 10.2081 9.3291 9.60951C8.72804 8.62932 9.14106 7.94713 9.54044 7.28738C9.9933 6.53929 10.5066 5.69135 10.0143 4.04242C9.62562 2.74063 8.86443 1.64773 7.75183 0.794041C7.40499 0.527947 7.07605 0.327822 6.8091 0.184509C7.18195 1.09207 7.66681 2.78092 7.16034 4.64679C6.83912 5.83032 5.99017 6.7272 5.16917 7.59454C4.08783 8.73698 2.96962 9.91829 2.96962 11.8058C2.96962 13.27 3.47977 14.4364 4.48585 15.2727C5.24772 15.9059 6.02515 16.1525 6.03289 16.1545H7.88798L7.84915 16.1537C7.84199 16.1482 7.13525 15.5903 7.12308 14.9505C7.11741 14.6515 7.27434 14.3647 7.5895 14.098C8.0629 13.6974 8.32308 13.2661 8.38498 12.7794C8.42283 12.4818 8.38456 12.1671 8.26824 11.8275C9.05342 12.1568 9.86561 12.8758 10.1408 13.7683C10.388 14.5699 10.1594 15.3942 9.48024 16.1545H11.5104C12.8403 15.1126 13.589 13.8641 13.7357 12.4436C13.9228 10.6324 13.0948 8.92651 12.511 7.97701Z" fill="black"/>
<path d="M7.88799 16.1545L9.45351 16.1845C9.46259 16.1745 9.47129 16.1645 9.48023 16.1545H7.88799Z" fill="black"/>
</g>
<defs>
<clipPath id="clip0_1_231">
<rect width="15.2" height="16" fill="white" transform="translate(0.766113 0.184509)"/>
</clipPath>
</defs>
</svg>
