<svg width="17" height="17" viewBox="0 0 17 17" fill="none" xmlns="http://www.w3.org/2000/svg">
<g clip-path="url(#clip0_1_201)">
<path d="M12.7009 8.74355C12.6292 9.78564 12.035 10.5172 11.3489 10.8273C10.6215 11.156 9.88615 10.9747 9.51904 10.376C8.91799 9.39586 9.331 8.71368 9.73038 8.05393C10.1832 7.30583 10.6966 6.45789 10.2042 4.80896C9.81556 3.50717 9.05437 2.41427 7.94177 1.56058C7.59493 1.29449 7.26599 1.09436 6.99904 0.95105C7.37189 1.85861 7.85675 3.54746 7.35028 5.41333C7.02906 6.59686 6.18012 7.49374 5.35911 8.36108C4.27777 9.50352 3.15956 10.6848 3.15956 12.5723C3.15956 14.0365 3.66971 15.203 4.67579 16.0392C5.43766 16.6725 6.21509 16.9191 6.22284 16.921H8.07792L8.03909 16.9203C8.03193 16.9147 7.32519 16.3569 7.31302 15.7171C7.30735 15.418 7.46428 15.1312 7.77944 14.8645C8.25284 14.4639 8.51302 14.0326 8.57492 13.546C8.61277 13.2483 8.5745 12.9337 8.45819 12.594C9.24336 12.9233 10.0556 13.6423 10.3308 14.5349C10.578 15.3364 10.3493 16.1607 9.67018 16.921H11.7004C13.0302 15.8792 13.7789 14.6306 13.9256 13.2101C14.1127 11.3989 13.2847 9.69305 12.7009 8.74355Z" fill="black"/>
<path d="M8.07793 16.921L9.64345 16.9511C9.65253 16.9411 9.66123 16.931 9.67017 16.921H8.07793Z" fill="black"/>
</g>
<defs>
<clipPath id="clip0_1_201">
<rect width="15.2" height="16" fill="white" transform="translate(0.956055 0.95105)"/>
</clipPath>
</defs>
</svg>
